<?xml version="1.0" encoding="UTF-8" standalone="no"?>
<svg width="34px" height="29px" viewBox="0 0 34 29" version="1.1" xmlns="http://www.w3.org/2000/svg" xmlns:xlink="http://www.w3.org/1999/xlink" xmlns:sketch="http://www.bohemiancoding.com/sketch/ns">
    <!-- Generator: Sketch 3.0.1 (7597) - http://www.bohemiancoding.com/sketch -->
    <title>Slice 1</title>
    <description>Created with Sketch.</description>
    <defs></defs>
    <g id="Page-1" stroke="none" stroke-width="1" fill="none" fill-rule="evenodd" sketch:type="MSPage">
        <g id="octocat" sketch:type="MSLayerGroup" transform="translate(1.000000, 1.000000)">
            <g id="Page-1" sketch:type="MSShapeGroup">
                <g id="octocat">
                    <g id="Page-1">
                        <g id="Group" fill="#000000">
                            <path d="M9.6965627,2.38204792 C10.0490411,2.28772665 12.3343108,1.71857766 16,1.76384316 C19.6656892,1.71857766 21.9509589,2.28772665 22.3034373,2.38204792 C26.4847192,-0.771241721 29.2490234,-0.273111979 29.2490234,-0.273111979 C29.2490234,-0.273111979 30.7957357,2.8666993 29.5683587,6.66389974 C30.4544271,7.70540341 32.1437181,8.81477841 32.1437181,14.1479495 C32.1437181,21.3847648 27.8556066,25.0741574 20.5310872,25.8769523 C20.5254014,25.8775754 20.5197187,25.8781976 20.5140393,25.8788188 C20.4245685,25.9085818 19.229203,26.2833869 16,26.2021016 C12.770797,26.2833869 11.5754315,25.9085818 11.4859607,25.8788188 C11.4802813,25.8781976 11.4745986,25.8775754 11.4689128,25.8769523 C4.14439338,25.0741574 -0.143718084,21.3847648 -0.143718084,14.1479495 C-0.143718084,8.81477841 1.54557292,7.70540341 2.43164126,6.66389974 C1.20426432,2.8666993 2.75097656,-0.273111979 2.75097656,-0.273111979 C2.75097656,-0.273111979 5.51528076,-0.771241721 9.6965627,2.38204792 Z M15.5,12.2797724 C13.5865242,12.2686555 11.3285123,12.1638458 8.81184898,11.8818359 C6.02938802,11.5700415 2.22558595,15.0953765 4.36962893,20.598958 C4.86421393,21.8685169 6.16282618,22.7010807 7.86820361,23.2307037 L7.86263096,23.2994795 C7.86263096,23.2994795 8.62822763,23.4938388 9.30898727,23.591766 C10.8408107,23.8973961 12.569585,24.028166 14.2850693,24.0550206 C17.2185111,24.2101248 20.6780336,24.1673609 23.3208526,23.4588519 C23.609077,23.4187379 23.767415,23.3938805 23.767415,23.3938805 L23.759162,23.3327882 C25.4649671,22.8070069 26.7704229,21.9707051 27.2719727,20.6832682 C29.4160156,15.1796867 24.970612,11.5700415 22.188151,11.8818359 C19.6714877,12.1638458 17.4134758,12.2686555 15.5,12.2797724 Z" id="Path-7" stroke="#000000"></path>
                            <ellipse id="Oval-1" cx="22" cy="17" rx="2" ry="3"></ellipse>
                            <ellipse id="Oval-2" cx="10" cy="17" rx="2" ry="3"></ellipse>
                        </g>
                        <path d="M14.2000122,21.8165869 C14.2000122,21.8165869 16.2000122,22.6419458 18.2000122,21.8165869" id="Path-11" stroke="#000000"></path>
                    </g>
                </g>
            </g>
        </g>
    </g>
</svg>